<!DOCTYPE svg PUBLIC "-//W3C//DTD SVG 1.1//EN" "http://www.w3.org/Graphics/SVG/1.1/DTD/svg11.dtd">
<!-- Uploaded to: SVG Repo, www.svgrepo.com, Transformed by: SVG Repo Mixer Tools -->
<svg width="256px" height="256px" viewBox="-71.68 -71.68 1167.36 1167.36" class="icon" version="1.1" xmlns="http://www.w3.org/2000/svg" fill="#030303" transform="rotate(0)" stroke="#030303" stroke-width="0.01024">
<g id="SVGRepo_bgCarrier" stroke-width="0" transform="translate(0,0), scale(1)">
<path transform="translate(-71.68, -71.68), scale(36.48)" d="M16,28.56868054717779C17.94546082681567,28.182472633503593,19.565426410320978,27.035467272124304,21.41232858606887,26.31233053921926C23.496153009819032,25.496429185305796,26.103908180443213,25.667124822939332,27.61840518476837,24.019606060610464C29.13739745864082,22.367197198862627,29.086388929701478,19.8496019948268,29.39671614441874,17.626655842921C29.711351678667942,15.37284819427722,30.586820394076888,12.87046480316935,29.45005568520749,10.899066712177435C28.297506887128332,8.900295565800011,25.485985899631597,8.731599274895407,23.54672986271402,7.481502938278359C21.92237582956373,6.43440086018561,20.698317146356157,4.894179813346213,18.928929217640444,4.1168670418874616C16.961427236112154,3.252520454408249,14.797023003610706,2.144719418801775,12.729032231831944,2.7291620921604114C10.659362762623793,3.3140791885323333,9.52677928635259,5.492031849010489,8.166975701205246,7.158343323861734C6.971440900406222,8.623358844422777,6.127630050581255,10.250893614023699,5.231896626935566,11.916197060597408C4.2185145591963495,13.800227069473845,2.7577313526727547,15.508066993406748,2.5315978833906705,17.635360095833587C2.286695283089819,19.939219024988894,2.698924688611277,22.369962340839454,3.9107432535640676,24.344611427314952C5.141839039594772,26.35067259815043,7.106710758808109,27.934776667672466,9.328675706836005,28.711146441202942C11.459428598041582,29.455646097267685,13.78612691735194,29.00817297622272,16,28.56868054717779" fill="#e8e8e8" strokewidth="0"/>
</g>
<g id="SVGRepo_tracerCarrier" stroke-linecap="round" stroke-linejoin="round" stroke="#CCCCCC" stroke-width="8.192"/>
<g id="SVGRepo_iconCarrier">
<path d="M903.730334 183.712672l-57.869998-0.55085c-0.733102 0-91.938759-5.443998-128.643-11.866831-79.154527-13.8245-142.529957-12.603004-209.451102 35.234966-68.571648-47.286096-114.940343-50.221575-204.129969-35.052714-7.523509 1.283952-14.741901 2.630361-21.89886 3.977794-26.790983 5.136833-104.050298 8.258659-104.050298 8.258659H120.002432c-12.969555 0-23.489977 10.520422-23.489977 23.489977v599.172573c0 12.969555 10.520422 23.489977 23.489977 23.489977h292.827107c-0.673717 2.079511-1.346409 4.159022-1.346409 6.483242 0 12.603004 10.642264 22.819332 23.918985 22.819332h146.138128c13.273649 0 23.97837-10.216328 23.978371-22.819332 0-2.32422-0.673717-4.403731-1.405795-6.483242h299.617515c13.028941 0 23.552434-10.520422 23.552434-23.489977V207.202649c0-12.969555-10.523493-23.489977-23.552434-23.489977z" fill="#353c41"/>
<path d="M143.551794 230.752012h30.709393v552.133233H143.551794z" fill="#FFFFFF"/>
<path d="M206.621082 230.937335c33.951013-0.184299 59.579887-4.710896 83.865424-9.298927a825.054986 825.054986 0 0 1 21.043915-3.855952c88.086902-14.924152 119.773081-8.929304 178.498024 33.768762 0.366551 0.244709 0.736174 0.366551 1.102724 0.550851v497.934887c-76.097205-66.738893-144.487625-40.252004-230.309693-6.483242l-54.19937 22.631961c-0.12389-92.309405-0.12389-431.198042-0.001024-535.24834z" fill="#5D3EBC"/>
<path d="M272.564417 772.302366c88.512839-34.805958 141.916649-55.727007 208.470219 10.523494 0 0 0.062457 0.059385 0.121842 0.059385H247.17718l25.387237-10.582879zM534.745612 782.885245c0.304094-0.244709 0.733102-0.429008 1.040268-0.733102 61.41469-66.921145 119.465916-45.022286 215.323084-8.932376l23.611819 9.665478H534.745612z" fill="#ffd300"/>
<path d="M814.847873 765.87851l-52.363543-21.532309c-93.163326-35.109028-167.485114-62.883965-240.034556 7.281873v-498.30451c1.405795-0.673717 2.87507-1.221495 4.159022-2.201354 57.562833-45.022286 108.578943-46.491561 182.535204-33.522005 29.055818 5.076423 80.197866 9.480154 105.703873 11.437823 0.243685 103.321292 0.243685 445.697282 0 536.840482z" fill="#5D3EBC"/>
<path d="M846.108116 230.752012h34.132241v552.133233h-34.132241z" fill="#FFFFFF"/>
</g>
</svg>