<!DOCTYPE svg PUBLIC "-//W3C//DTD SVG 1.1//EN" "http://www.w3.org/Graphics/SVG/1.1/DTD/svg11.dtd">
<!-- Uploaded to: SVG Repo, www.svgrepo.com, Transformed by: SVG Repo Mixer Tools -->
<svg width="800px" height="800px" viewBox="-12.8 -12.8 153.60 153.60" xmlns="http://www.w3.org/2000/svg" xmlns:xlink="http://www.w3.org/1999/xlink" aria-hidden="true" role="img" class="iconify iconify--noto" preserveAspectRatio="xMidYMid meet" fill="#000000">
<g id="SVGRepo_bgCarrier" stroke-width="0">
<path transform="translate(-12.8, -12.8), scale(4.8)" d="M16,27.584591507911682C19.498088211812473,27.618176769194083,22.440130492216504,25.58190304525084,24.914871670619277,23.109372922620494C27.93763593232719,20.089309347524928,32.044457594850016,16.720223650569913,31.028079387795913,12.569938947118466C30.01646742610452,8.43911675780245,24.651009855441952,7.831580973275382,20.755521450695433,6.1250579557722205C17.14942075645476,4.545308974705424,13.514598003481204,1.7760762249405588,9.888402706581044,3.3091374529819557C6.145009448309384,4.891746936391099,4.451618416956824,9.213526837057959,3.9197857369410354,13.242769925221975C3.4485335025991817,16.81304659183712,4.977218203298131,20.185867530373905,7.2972326337823965,22.940225384192743C9.525908346158745,25.58614446613473,12.540696584101504,27.55137862074499,16,27.584591507911682" fill="#e8e8e8" strokewidth="0"/>
</g>
<g id="SVGRepo_tracerCarrier" stroke-linecap="round" stroke-linejoin="round"/>
<g id="SVGRepo_iconCarrier">
<path d="M68.05 7.23l13.46 30.7a7.047 7.047 0 0 0 5.82 4.19l32.79 2.94c3.71.54 5.19 5.09 2.5 7.71l-24.7 20.75c-2 1.68-2.91 4.32-2.36 6.87l7.18 33.61c.63 3.69-3.24 6.51-6.56 4.76L67.56 102a7.033 7.033 0 0 0-7.12 0l-28.62 16.75c-3.31 1.74-7.19-1.07-6.56-4.76l7.18-33.61c.54-2.55-.36-5.19-2.36-6.87L5.37 52.78c-2.68-2.61-1.2-7.17 2.5-7.71l32.79-2.94a7.047 7.047 0 0 0 5.82-4.19l13.46-30.7c1.67-3.36 6.45-3.36 8.11-.01z" fill="#fdd835"/>
<path d="M67.07 39.77l-2.28-22.62c-.09-1.26-.35-3.42 1.67-3.42c1.6 0 2.47 3.33 2.47 3.33l6.84 18.16c2.58 6.91 1.52 9.28-.97 10.68c-2.86 1.6-7.08.35-7.73-6.13z" fill="#ffff8d"/>
<path d="M95.28 71.51L114.9 56.2c.97-.81 2.72-2.1 1.32-3.57c-1.11-1.16-4.11.51-4.11.51l-17.17 6.71c-5.12 1.77-8.52 4.39-8.82 7.69c-.39 4.4 3.56 7.79 9.16 3.97z" fill="#f4b400"/>
</g>
</svg>