<svg xmlns="http://www.w3.org/2000/svg" width="304" height="40" fill="none"><path fill="#EB8603" d="M303.456 2.687c.117.008.194.024.311.048-.078.016-.156.032-.233.056.039.112.077.208 0 .272v.136c.116.072.155.136.078.208-.039.064-.078.128-.078.2.039.032.039.056.078.088-.039.016-.039.048-.078.072 0 .128.077.232.155.288.117.048.078.096-.077.152-.156.056-.156.112.077.152.117.048.117.088 0 .136-.116.048-.155.088-.155.136v.584h-.505c.116.048.233.08.427.104.156.024.194.056.078.104.116.024.039.08-.156.168l.311.136c-.116.072-.233.136-.311.208-.116.072-.038.136.156.208.233.048.272.096.155.152-.116.056-.233.12-.311.192h-.349c.233.112.272.232.155.36-.116.128-.078.248.156.36.077.064.077.144 0 .248l-.156.225c.039.04.039.08.078.12l.311.032c0-.048.039-.072.077-.088l.078.576c-.233.16-.233.32-.078.48.039.032.039.056.039.088a.724.724 0 0 0-.233-.024l-.505.184c0 .08-.039.144-.155.184.349 0 .66-.024.932-.056 0 .04 0 .08-.039.12H304c-.078.048-.117.088-.194.136-.078-.008-.117-.016-.233-.016a.397.397 0 0 1 .039.208c-.039.056-.117.104-.117.16 0 .016.039.024.039.04-.039.048-.039.096-.117.144-.233.16-.272.344-.155.544.116.2.155.416.078.632l-.467.152a1.997 1.997 0 0 1-.388.144c-.039.016-.078.032-.078.056.078.048.078.088 0 .12-.233.048-.233.088-.078.136.156.048.311.088.428.136-.233.088-.311.176-.233.256.039.056.039.113.039.176.116.04.194.072.272.12h-.311c0 .008-.039.017-.039.024.078 0 .155.016.233.016.155 0 .35.024.583.072 0 .049-.156.072-.505.072.233.048.31.104.233.169-.039.072-.156.128-.233.168-.117 0-.233-.008-.35-.016v.016c.039.056-.039.104-.155.152 0 .056.038.112.155.152 0 .016-.039.032-.039.048.078.04.117.08.117.12v.072h.272c-.117.024-.156.056-.156.104h.389c-.194.04-.272.064-.311.088 0 .008 0 .008.039.016h.583v.04h-.467c.039.008.039.024.078.032-.116.072-.194.128-.233.192-.039.064-.078.12-.078.184v.016l.272.056c-.077.016-.194.032-.272.048v.008c.117.032.156.072.156.12-.233.112-.311.208-.233.288.077.08.077.176.077.288.233.072.272.136.156.208-.117.072-.156.136-.156.208-.233.112-.272.192-.155.24.233.072.233.16 0 .272h.66c-.116 0-.233.016-.349.032v.752c0 .048-.039.096-.156.152-.116.056-.116.112 0 .152.233.112.156.216-.155.313.233.087.233.168 0 .24-.117.048-.117.08 0 .104.116.023.155.055.155.104.233.072.233.144.078.224-.155.08-.194.168-.078.256a.623.623 0 0 1-.077.256c-.039.08-.039.152.077.224.117.048.156.088.078.12-.039.032-.078.072-.078.12-.116.072-.077.136.078.208.155.072.155.152-.078.24 0 .048-.039.104-.077.168-.039.072-.039.128.077.168.117.112.156.224.078.328-.039.104-.039.2.078.288-.117.112-.156.24-.078.376.039.136-.039.264-.233.376.116.048.233.088.311.136.116.048.155.088.155.136-.116.088-.155.176-.078.256a.61.61 0 0 1 .078.256c0 .072-.039.136-.078.208-.038.072-.155.152-.233.24l-.505.105c.428 0 .661.08.661.24-.233 0-.311.008-.311.032.233 0 .388.015.505.032-.233.048-.311.096-.233.152.039.056.039.12-.078.192-.116.048-.078.088.078.136.155.048.233.088.233.136 0 .232-.117.392-.35.48-.233.072-.233.16 0 .272-.233.184-.233.376 0 .584.233.088.195.176-.077.256-.272.08-.311.168-.078.256.427.184.66.328.66.448v.72l-.66.064c.233-.104.272-.208.155-.328a5.694 5.694 0 0 0-.583-.088c-.155-.008-.349-.032-.582-.048v.104h.505c0 .072-.039.144-.078.224-.039.04 0 .088.039.128l.078.016v.016c0 .008.038.016.038.024l-.077.008c-.117.072-.117.136.039.208.038-.056.077-.12.155-.176-.039-.016-.078-.032-.078-.04l.428-.04c-.233.104-.233.208 0 .328.233.16.155.264-.156.312-.116-.024-.194-.056-.272-.08 0 .008 0 .024-.039.032 0 .088-.155.168-.505.24.234.024.35.049.428.072.078.024.194.049.427.073h-.35c-.116.072-.116.136 0 .207.117.072.117.153 0 .24-.116.089-.038.233.156.409-.117.072-.156.152-.078.24.039.04.039.08.039.12l.311.04c.233.072.233.128.078.192-.156.056-.234.12-.234.184 0 0 .156.96-.155 1.096.311 0 .544.008.661.032-.117 0-.272.024-.506.072-.116.072-.116.144 0 .224.117.08.117.168 0 .256.117.048.156.112.156.208-.117.024-.156.048-.156.072l.311.072c-.233.072-.311.144-.233.224.039.08.078.152.078.224-.233.232-.311.408-.311.552h.505c0 .072-.078.136-.233.209 0 0 .194.208.078.264-.078.008-.117.016-.195.023.039.009.039.017.078.025-.194.055-.272.12-.35.176-.038.056-.077.12-.077.184-.117.048-.117.088 0 .12.116.032.155.072.155.12-.233.112-.311.208-.233.288.078.08.078.176.078.288.233.072.272.136.155.208-.116.072-.155.136-.155.208-.233.112-.272.192-.156.24.234.072.234.16 0 .272h.661c-.117 0-.233.016-.311.032l-.622.016v.488c-.116.048-.116.096 0 .152.117.056.117.12 0 .192-.116.072-.116.136-.077.208.077.072.039.136-.078.208-.116.048-.117.104-.078.168.039.072.078.128.078.168.117.048.117.096 0 .152-.116.056-.116.12 0 .192a.47.47 0 0 1 .155.36v.36c-.31.136-.505.288-.505.449 0 .048-.077.088-.233.136-.155.048-.194.088-.077.136 0 .048-.078.088-.233.136-.156.048-.311.088-.428.136.233.088.272.16.156.208-.234.088-.467.176-.7.256-.233.08-.544.144-.971.184-.544.088-1.049.184-1.554.272-.505.088-1.01.16-1.554.208-.311.048-.66.048-.971.016a5.686 5.686 0 0 0-.971-.016c-.35.048-.7.056-1.088.032a5.53 5.53 0 0 0-1.049.032 7.934 7.934 0 0 1-1.166-.016 5.768 5.768 0 0 0-1.165.016c-.35.024-.661.016-.971-.016a9.884 9.884 0 0 0-.972-.048c-.233 0-.544-.024-.971-.072a7.27 7.27 0 0 0-.816.032l.505.104c-.272 0-.582-.016-.893-.024v.12a4.138 4.138 0 0 0-1.321.072 2.706 2.706 0 0 0-.505-.072 2.346 2.346 0 0 1-.583 0 .83.83 0 0 0-.427.032 18.291 18.291 0 0 0-1.632 0c.233 0 .427.008.66.032-.233.024-.388.04-.505.048-.116.008-.272.032-.505.048a32.769 32.769 0 0 0-.815-.072 10.572 10.572 0 0 0-.816-.032v.128c-.117-.024-.156-.048-.156-.072 0-.024-.116-.032-.349-.032-.661 0-1.166-.008-1.477-.032-.349 0-.582.024-.816.072a4.449 4.449 0 0 1-.738.016c-.272-.008-.505-.016-.738-.016a7.328 7.328 0 0 1-1.321.088c-.505-.024-.932-.024-1.359-.024-.428 0-.816.016-1.166.048s-.66.04-.971.016c-.428 0-.816.008-1.166.016-.31.008-.66.008-.971-.016a51.298 51.298 0 0 0-2.137-.032c-.427 0-.816.008-1.165.032a9.355 9.355 0 0 1-1.166 0 9.41 9.41 0 0 1-1.165 0c-.35-.024-.699-.032-1.166-.032h-3.108a4.627 4.627 0 0 1-.893-.016 22.81 22.81 0 0 0-.894-.088 1.945 1.945 0 0 1-.583-.016 1.451 1.451 0 0 0-.582.016c-.894.088-1.515.112-1.982.072-.233 0-.427.008-.66.032-.233.024-.427.048-.66.072a58.899 58.899 0 0 0-2.448-.072c-.427.024-.971.008-1.632-.032a5.865 5.865 0 0 1-1.088.048 12.093 12.093 0 0 0-1.087.016 7.934 7.934 0 0 1-1.166-.016 5.754 5.754 0 0 0-1.165.016 36.49 36.49 0 0 1-2.292 0h-5.906a7.556 7.556 0 0 0-1.476 0 14.996 14.996 0 0 0-1.826-.032c-.544.016-1.049.016-1.515.008-.427.008-.816.008-1.088-.008h-.66a9.078 9.078 0 0 1-.933.016c-.077.008-.155.008-.233.016a10.133 10.133 0 0 0-.971-.032c-.311.048-.699.064-1.088.048-.311-.008-.621-.008-.971-.016a3.202 3.202 0 0 1-.66-.024 2.265 2.265 0 0 0-.739.016 3.034 3.034 0 0 1-.66 0 6.082 6.082 0 0 0-.661-.032h-2.797v-.104c-.155.032-.349.064-.466.096-.116.032-.272.04-.505.016-.116.024-.388.008-.816-.032l-.621.064c-.35-.024-.661-.048-.972-.072a4.933 4.933 0 0 0-.971.032 2.481 2.481 0 0 1-.738.032 85.556 85.556 0 0 0-.894-.072v-.072a13.4 13.4 0 0 1-1.709.032 13.403 13.403 0 0 0-1.709.032c-.428.024-1.088.008-1.982-.032a27.72 27.72 0 0 1-1.631.016c-.544-.016-1.088-.016-1.632-.016-.233 0-.35-.032-.35-.104l-.311.136a6.477 6.477 0 0 0-1.165-.032c-.194.016-.389.016-.622.016 0-.008-.038-.008-.038-.016-.039-.024-.156-.048-.234-.072.234-.088.311-.152.311-.168h-.505c0-.048.039-.096.078-.152.039-.056.078-.112.078-.152-.117 0-.195.008-.234.016a1.67 1.67 0 0 1-.233.016c0 .048-.038.08-.077.104-.039.024-.078.056-.078.104.194.12.272.224.311.304-.389-.016-.738-.024-1.049-.016-.311.008-.699.008-1.166-.016-.233 0-.427.008-.582.032-.156.024-.35.024-.583 0-.233-.024-.389-.024-.505 0-.117.024-.272.024-.505 0a7.991 7.991 0 0 0-.971-.016 6.408 6.408 0 0 1-.816-.016c-.661 0-1.088.008-1.321.032a8.27 8.27 0 0 1-1.243.048c-.389-.008-.739-.016-1.088-.016-.971-.048-1.71-.104-2.137-.168a81.291 81.291 0 0 0-1.554-.12 10.166 10.166 0 0 0-1.554.016 7.81 7.81 0 0 0-.816.088c-.233.032-.505.064-.816.088v-.136c-.116.048-.155.088-.155.12s-.117.072-.311.12c-.233 0-.35-.032-.35-.104a1.3 1.3 0 0 1-.233.032v.128c-.233 0-.427-.008-.66-.032-.233-.024-.427-.048-.66-.072a16.57 16.57 0 0 1-1.826.048 33.971 33.971 0 0 0-1.826.016 15.943 15.943 0 0 0-1.399-.016c-.505.016-1.01.008-1.554-.016a6.596 6.596 0 0 0-.816-.016c-.311.016-.621.016-.816.016a5.733 5.733 0 0 1-1.165.016 5.686 5.686 0 0 0-.971-.016c-.234 0-.428.008-.583.016-.156.008-.35.008-.583-.016a11.88 11.88 0 0 0-1.088-.016c-.388.016-.777.016-1.243.016a9.123 9.123 0 0 0-1.243.016 4.91 4.91 0 0 1-1.088-.016c-.233 0-.388-.008-.505-.032-.116-.024-.272-.024-.505 0-.35.048-.699.048-1.165 0-.428.072-.933.08-1.477.032a3.785 3.785 0 0 0-.738 0 8.152 8.152 0 0 1-.738.032h-3.613c-.117.024-.156.048-.156.072v-.136c-.543.048-.971.048-1.32 0-.233-.024-.622-.008-1.166.032-.311 0-.66.016-.971.032a4.928 4.928 0 0 1-.971-.032c-.544 0-1.01-.008-1.399-.016-.388-.008-.855.008-1.399.048-.233 0-.427-.008-.582-.032a2.346 2.346 0 0 0-.583 0c-.311 0-.622.008-.894.016s-.582.032-.893.048a12.026 12.026 0 0 0-1.826-.072 5.81 5.81 0 0 1-1.166-.104 5.12 5.12 0 0 1-1.165.088 18.45 18.45 0 0 0-1.321.016 3.034 3.034 0 0 1-.66 0 3.043 3.043 0 0 0-.661 0c-.427 0-.855-.008-1.243-.016-.389-.008-.777.008-1.243.048a9.349 9.349 0 0 1-.661-.088 2.032 2.032 0 0 0-.66.016c-.233.024-.544.016-.971-.032l.155-.032c-.117-.048-.155-.128-.155-.24.233.048.388.072.505.088.116.008.272.04.505.088v-.16c.233 0 .427-.024.66-.072h-.66v-.104c-.233.048-.428.064-.661.048a3.64 3.64 0 0 0-.66.016c-.233 0-.389.008-.505.016-.039.008-.156-.008-.233-.008v.008a4.552 4.552 0 0 1-.505.032c-.117.024-.195.032-.272.04 0 0 0 .008.039.016v.008c.271.008.543.016.777.04.31.032.543.088.66.152a2.383 2.383 0 0 0-.505.088 1.956 1.956 0 0 1-.505.048h-2.797c-.233 0-.467-.016-.738-.048a2.51 2.51 0 0 0-.739.016 2.962 2.962 0 0 1-.582.016 3.763 3.763 0 0 0-.583.016c-.427.024-.855.032-1.321.016a13.686 13.686 0 0 0-1.166.016c-.893-.048-1.515-.056-1.981-.032a9.41 9.41 0 0 1-1.165 0 6.57 6.57 0 0 0-.972 0v.08a1.036 1.036 0 0 0-.31-.08c-.35.024-.777.032-1.205-.008-.116.008-.194.016-.311.016-.505.04-1.01.04-1.398 0a1.664 1.664 0 0 0-.194.048v-.056a5.35 5.35 0 0 0-.505-.024h-.117c-.194 0-.388.008-.583.032l-.039-.008c-.272.008-.582.008-.893-.008-.427-.024-1.088-.008-1.981.032-.311-.024-.7-.032-1.166-.016-.466.016-.894.008-1.321-.016a3.763 3.763 0 0 0-.583-.016 2.962 2.962 0 0 1-.582-.016 2.265 2.265 0 0 0-.739-.016c-.038.032-.271.056-.505.056h-2.797c-.233 0-.388-.016-.505-.048a3.048 3.048 0 0 0-.505-.088c.117-.072.311-.12.661-.152.31-.032.66-.048.971-.048-.117 0-.272-.024-.505-.072h.66c-.116-.024-.388-.032-.816-.032a2.28 2.28 0 0 1-.505.016 7.056 7.056 0 0 0-.505-.016 3.64 3.64 0 0 0-.66-.016 2.635 2.635 0 0 1-.661-.048v.088h-.66c.233.048.427.072.66.072v.168a7.53 7.53 0 0 1 .505-.088c.117-.008.272-.04.506-.088 0 .112-.078.192-.156.24l.156.032c-.428.048-.777.056-.972.032a1.827 1.827 0 0 0-.66-.016c-.233.032-.428.064-.661.088a8.261 8.261 0 0 0-1.243-.048c-.388.016-.816.016-1.243.016a3.039 3.039 0 0 0-.66 0 3.038 3.038 0 0 1-.66 0 18.185 18.185 0 0 0-1.322-.016 4.867 4.867 0 0 1-1.165-.088c-.311.072-.7.104-1.166.104-.66-.024-1.282 0-1.826.072-.31-.024-.621-.04-.893-.048a30.584 30.584 0 0 0-.894-.016 2.344 2.344 0 0 0-.583 0c-.155.024-.35.032-.582.032a11.066 11.066 0 0 0-1.399-.048c-.388.016-.855.016-1.398.016-.311.048-.661.056-.972.032-.35-.024-.66-.032-.971-.032-.544-.048-.932-.056-1.166-.032-.31.048-.776.048-1.32 0v.128c0-.024-.078-.048-.156-.072h-3.613c-.233 0-.466-.008-.738-.032a3.786 3.786 0 0 0-.738 0 6.348 6.348 0 0 1-1.476-.032 4.723 4.723 0 0 1-1.166 0c-.233-.024-.388-.024-.505 0a2.654 2.654 0 0 1-.505.032c-.31.048-.7.048-1.088.016a9.126 9.126 0 0 0-1.243-.016c-.427 0-.855-.008-1.243-.016a12.112 12.112 0 0 0-1.088.016 2.969 2.969 0 0 1-.583.016c-.155-.008-.35-.016-.583-.016a5.627 5.627 0 0 0-.97.016c-.311.032-.7.032-1.166-.016-.233 0-.505-.008-.816-.016a6.407 6.407 0 0 0-.816.016c-.544.024-1.088.032-1.554.016a19.8 19.8 0 0 0-1.399.016 27.04 27.04 0 0 0-1.825-.016c-.467.016-1.088 0-1.632-.048-.233.024-.428.048-.66.072a6.083 6.083 0 0 1-.661.032 13.046 13.046 0 0 0-1.243-.016c-.389.008-.816.016-1.243.016-.311 0-.66-.008-.972-.016-.31-.008-.699-.032-1.165-.048l-.505-.104c0 .088-.389.136-1.166.136 0-.048-.039-.072-.155-.072 0 .048-.078.08-.155.104a2.757 2.757 0 0 0-.739-.048 8.502 8.502 0 0 1-.893-.016 2.609 2.609 0 0 0-.66.016 4.586 4.586 0 0 1-.661.048c-1.088 0-1.865-.024-2.292-.072-.311-.048-.777-.048-1.321 0a27.174 27.174 0 0 0-2.797 0 4.655 4.655 0 0 1-1.205-.008 4.948 4.948 0 0 0-1.243-.016c-.893.088-1.593.136-2.137.136h-3.457a6.56 6.56 0 0 0-.972 0c-.35.024-.66.032-1.01.032a23.108 23.108 0 0 0-1.826 0c-.621.024-1.243.008-1.787-.032a3.039 3.039 0 0 0-.66 0 6.083 6.083 0 0 1-.66.032h-2.953a3.786 3.786 0 0 0-.738 0 5.548 5.548 0 0 1-.894 0 8.513 8.513 0 0 0-1.01-.016c-.31.008-.66.008-.971-.016a5.328 5.328 0 0 0-.816-.016c-.31.016-.622.016-.816.016a3.787 3.787 0 0 1-.738 0 5.547 5.547 0 0 0-.894 0c-.582.024-1.165.032-1.748.032h-1.71a20.393 20.393 0 0 0-2.175-.104c-.233 0-.427-.016-.66-.048a2.026 2.026 0 0 0-.622-.016c-.233 0-.427-.016-.66-.048-.233-.04-.466-.072-.66-.096-.428.048-.778.056-.972.032a43.41 43.41 0 0 1-1.243-.128c-.389-.048-.7-.12-.933-.208-.427-.112-.854-.224-1.32-.328-.428-.104-.739-.208-.972-.32-.233-.072-.233-.144-.077-.208.155-.072.194-.136.077-.208-.233-.064-.272-.144-.155-.224.116-.08.039-.152-.155-.216-.117-.096-.078-.177.077-.248.156-.072.156-.152-.077-.24-.117-.065-.078-.137.077-.2.156-.073.233-.137.233-.209 0-.048.117-.112.311-.208 0-.088-.078-.152-.155-.168l-.466.104c0-.072.038-.144.155-.224.078-.04.078-.08.078-.12l-.389-.08c0-.048-.039-.08-.155-.104.233 0 .427.016.621.024 0-.152.04-.28.117-.376-.039-.024-.039-.04-.078-.064-.039-.008-.039-.016-.039-.032-.039 0-.077 0-.077-.008-.04-.008-.156-.008-.233-.008.077-.024.155-.04.194-.064-.04-.064-.078-.128 0-.192.116-.112.116-.232.077-.36-.038-.128-.038-.248.078-.36 0-.048.039-.08.078-.104.039-.016-.039-.04-.039-.056H2.02v-.024c0-.008 0-.016-.039-.024-.272-.144-.233-.296 0-.456l-.116-.072c-.04-.008 0-.016-.04-.024-.077-.024-.116-.048-.116-.064.117-.04.156-.088.233-.128.04-.032 0-.072-.038-.096-.272-.088-.311-.184-.195-.288a.41.41 0 0 0 .156-.328c-.117-.072-.078-.144.077-.224.156-.08-.505-.289-.505-.329v-.12c-.116-.023-.388-.032-.815-.032 0-.023-.04-.047-.078-.072-.039-.015-.078-.04-.078-.064.233-.088.389-.152.505-.168.233.088.311.16.311.209a5.15 5.15 0 0 0 .505-.073c.117-.024.505-.24.505-.24-.35-.024-.583-.088-.816-.208a16.01 16.01 0 0 1-1.32.344.46.46 0 0 1 .155-.344c0-.112.039-.208.155-.272a.902.902 0 0 1-.233-.344c-.039-.112.039-.232.233-.344 0-.048-.078-.096-.233-.152-.155-.056-.116-.112.078-.152.233-.112.233-.208 0-.272-.194-.08-.311-.16-.311-.248s.039-.184.155-.272C.04 29.636 0 29.556 0 29.436c.117-.024.233-.04.35-.048.116-.008.233-.04.35-.088H0c.35-.072.7-.112 1.165-.136v-.104h.311v.104c.117 0 .195-.008.233-.016.078-.008.156-.016.233-.016l.156-.072c-.233-.048-.31-.08-.31-.104.116-.024.271-.032.504-.032v-.072c-.116 0-.194.008-.233.016a1.287 1.287 0 0 1-.233.016c-.233-.048-.35-.104-.35-.168.35 0 .7.024 1.166.072.427-.024-.66-.16-.583-.192.117-.048.117-.088 0-.12s-.155-.072-.155-.12.038-.088.155-.136c.117-.048.233-.088.31-.136h-.31c.117-.088.078-.184-.078-.272-.155-.088-.155-.184.078-.273 0-.072.039-.144.078-.224.039-.08-.04-.152-.233-.224 0-.048.038-.088.077-.12.04-.032.078-.072.078-.12 0-.088.039-.16.155-.208-.077-.032-.116-.048-.155-.072.117 0 .194-.008.31-.032-.116-.024-.155-.04-.155-.048s-.038-.024-.155-.048l-.155.016c.038-.04.116-.08.31-.12-.31-.072-.388-.184-.155-.344.117-.112.117-.224 0-.328-.117-.104-.078-.208.155-.328.117-.048.117-.088 0-.136-.116-.048-.155-.088-.155-.136-.117-.088-.155-.176-.078-.256.04-.08.04-.168-.077-.256-.233-.232-.117-.408.31-.552-.116 0-.233-.008-.31-.032 0-.024.038-.04.077-.048.04-.016.078-.032.078-.048-.31-.088-.427-.184-.233-.288.155-.104.194-.208.078-.328 0-.072.038-.128.155-.192a1.63 1.63 0 0 0 .31-.184c-.038-.024-.116-.048-.155-.064-.038-.024-.155-.056-.233-.104a3.48 3.48 0 0 0 .35-.168c.117-.073.155-.128.155-.169h-.505c.117-.023.233-.032.35-.032.117 0 .155-.023.155-.072 0-.136.04-.24.156-.312 0-.072-.117-.128-.35-.168-.116-.048-.155-.096-.078-.152.04-.056.078-.112.078-.152-.35-.088-.466-.184-.427-.272.077-.088.077-.184.077-.272 0-.088-.077-.168-.233-.24-.155-.072-.194-.136-.077-.208a.514.514 0 0 0-.078-.24c-.039-.072-.039-.136.078-.208.116-.112.155-.264.155-.448 0-.088-.039-.168-.155-.24-.117-.072-.117-.144 0-.24-.117-.088-.117-.168 0-.24.116-.072.155-.144.155-.24v-.648c-.116-.072-.078-.128.078-.192.155-.056.31-.12.427-.192-.116-.049-.078-.088.078-.12.155-.032.155-.072-.078-.12-.427-.185-.544-.32-.35-.409 0-.048-.038-.088-.155-.136-.116-.048-.233-.088-.31-.136.232-.224.31-.4.31-.512-.116-.088-.039-.208.155-.344-.155-.08-.233-.16-.194-.24.04-.08.04-.152-.077-.224-.117-.088-.078-.168.077-.24.156-.072.156-.152-.077-.24-.117-.16-.117-.32 0-.48v-1.232c.233-.088.233-.192 0-.312.233-.112.271-.24.155-.377-.078-.088 0-.16 0-.231l.116-.025c.117-.016.195-.032.311-.056.466.04.738.056.855.056l-.039-.104c.233 0 .466 0 .738.008.272.008.505.008.738.008 0-.024-.038-.04-.116-.048-.078-.008-.078-.024-.117-.048-.233 0-.388 0-.505-.008a4.627 4.627 0 0 0-.505-.008c-.621.048-1.126.08-1.554.088.117-.088.156-.184.156-.272 0-.088-.117-.184-.311-.272.116-.048.388-.448.388-.448H1.71c-.116-.048-.233-.088-.31-.136-.117-.048-.156-.088-.156-.136 0-.048-.039-.104-.078-.168-.038-.072.04-.128.234-.168.233-.072.233-.144 0-.224-.234-.08-.272-.152-.156-.224.233-.072.233-.144.078-.224-.155-.08-.194-.152-.078-.224-.116-.112-.078-.224.078-.328.155-.104.194-.208.078-.328-.234-.048-.311-.096-.234-.152.078-.056.04-.12-.077-.184-.117-.048-.078-.088.077-.136.156-.048.234-.088.234-.136 0-.184.038-.32.155-.408 0-.072.117-.112.427-.12.272-.008.467-.04.583-.088-.233 0-.427-.008-.66-.032.233-.048.35-.08.35-.104.116.024.155.04.155.048s.039.032.155.048c.194 0 .194-.048.155-.104.622-.048 1.166-.08 1.554-.088l-.194-.08c.117 0 .194-.009.233-.017.04-.016.117-.016.233-.024 0-.024-.077-.048-.194-.064-.116.024-.194.04-.31.056-.117.016-.195.032-.311.056a12.98 12.98 0 0 0-.855-.056l.039.104c-.117 0-.272 0-.389-.008-.194-.128-.466-.264-.31-.264-.04-.032-.04-.064-.078-.096v-.616c0-.072.077-.128.233-.184.155-.056.155-.12-.078-.192-.233-.112-.233-.232-.078-.36.156-.128.078-.248-.233-.36 0-.024.117-.056.35-.104-.35-.184-.35-.352 0-.512.117-.048.155-.08.078-.104-.04-.024-.078-.056-.078-.104-.117-.112-.155-.232-.078-.36 0-.032-.039-.056-.039-.088h-.388a.46.46 0 0 0-.155-.344c.116-.072.155-.128.155-.184 0-.056.116-.12.31-.184 0-.096.117-.192.273-.288-.233.008-.467.024-.777.024.116-.024.155-.056.155-.104l.427-.088c-.31-.04-.582-.08-.738-.128.233-.048.428-.072.66-.072.234 0 .428-.024.661-.072h-.621L1.67 2.59c.233-.185.31-.32.31-.409l-.31-.032c.116-.024.194-.032.233-.032.038 0 .116-.008.233-.032-.117-.088-.117-.168 0-.24a2.87 2.87 0 0 1 .505-.24c0-.136.388-.288 1.165-.448 0-.088.117-.152.311-.168.31-.048.66-.104.971-.168.311-.072.66-.128.972-.168.233-.048.427-.072.66-.072.233 0 .427-.024.66-.072C7.77.422 8.12.39 8.586.39c.427 0 .816-.024 1.165-.072.311-.048.66-.056.972-.032.233.024.427.032.582.016.156-.008.35-.016.583-.016h2.448c.427-.024.854-.048 1.243-.072.388-.024.854-.024 1.398 0 .311 0 .66-.008.972-.032.35-.024.66-.024.97 0 .234.024.428.032.584.016.155-.008.35-.016.582-.016a17.51 17.51 0 0 1 1.71.016 31.54 31.54 0 0 0 1.71.048c.232 0 .465-.008.737-.032.272-.024.505-.024.738 0 .233.024.467.032.739.016.271-.008.505.008.738.048.31-.048.66-.064.971-.048.31.008.66.008.971-.016.233-.024.466-.032.738-.032.272 0 .583-.008.894-.032.35-.024.7-.008 1.088.032.388.048.777.048 1.243 0 .427 0 .855-.008 1.243-.016.389-.008.777-.008 1.243.016.428 0 .855-.008 1.244-.032a8.219 8.219 0 0 1 1.087 0 9.416 9.416 0 0 1 1.166 0c.31.024.66.048.971.072C39.86.11 40.559.094 41.453.19V.158c.544 0 1.049-.008 1.476-.032a15.09 15.09 0 0 1 1.476 0c.544.024 1.321.032 2.292.032.117 0 .311-.032.661-.104H50a4.45 4.45 0 0 1 .738-.016c.272.008.505.008.738-.016.233-.024.427-.024.583 0 .155.024.35.032.583.032a6.483 6.483 0 0 1 1.165-.032c.31.024.7.032 1.165.032.311.024.544.072.661.136h.505c-.116-.048-.233-.072-.31-.088a1.51 1.51 0 0 1-.312-.048c.544 0 .933-.008 1.166-.032.427-.024.971-.008 1.632.032a8.267 8.267 0 0 1 1.243-.048c.388.016.777.016 1.243.016.31 0 .622.016.894.032.271.024.505.048.738.072.31 0 .66-.008.97-.032.312-.024.661-.024.972 0 1.088-.048 1.904-.056 2.448-.032h.66c.311-.024.66-.032.971-.016.311.008.66.016.972.016 0 .024.038.04.077.048.04.016.078.032.078.048 0-.024.039-.04.078-.048s.078-.024.078-.048c.893 0 1.476-.008 1.825-.032a3.3 3.3 0 0 1 .739.016c.272.032.505.032.738-.016.233-.024.427-.024.66 0 .233.024.428.032.66.032h2.798V.15c.233-.024.388-.048.505-.088.116-.032.272-.04.505-.016.116-.024.388-.008.816.032l.66-.072.971.072c.311.024.66.008.972-.032.233-.048.466-.056.738-.032.272.024.583.048.893.072V.15a13.406 13.406 0 0 1 1.71-.032c.621.024 1.165.016 1.71-.032.427-.024 1.087-.008 1.98.032a27.736 27.736 0 0 1 1.632-.016c.544.016 1.088.016 1.632.016.233 0 .31.032.31.104l.311-.136c.428.048.816.056 1.166.032.31-.024.7-.024 1.165 0 .428.024.816.032 1.166.016.31-.008.7-.008 1.165.016.234 0 .428-.008.583-.032.156-.024.35-.024.583 0 .233.024.388.024.505 0 .117-.024.272-.024.505 0 .31.024.66.032.971.016.311-.008.583-.008.816.016.661 0 1.088-.008 1.321-.032A8.265 8.265 0 0 1 103.69.07c.389.008.738.016 1.088.016.971.048 1.709.104 2.137.168.544.048 1.088.088 1.554.12.466.032 1.01.032 1.554-.016.311-.024.582-.048.816-.088.233-.032.505-.064.815-.088v.136c.117-.048.156-.088.156-.12s.116-.072.311-.12c.233 0 .31.032.31.104.234-.048.505-.064.816-.048.35.016.622.032.816.048 0 .048-.116.088-.35.136.35-.024.661-.032.972-.032.311 0 .621-.008.816-.032.31 0 .699.024 1.165.072V.19c.117.024.272.032.505.032V.15c.233.048.389.072.505.072V.086h.311v.208l.155.032c.233-.024.428-.056.661-.104.544.072.816.184.816.344 0 .048.039.08.155.104.233 0 .35-.024.35-.072-.117-.048-.156-.096-.156-.152 0-.056-.039-.112-.155-.152l.622-.112c.233.048.31.088.31.12v.12h.039a4.2 4.2 0 0 1 .466-.112c0-.024-.038-.04-.077-.048s-.078-.024-.078-.048L121.6.11c.233 0 .389-.008.505-.032 0 .168-.233.288-.622.376h.078c0 .024.039.048.078.072.039.024.078.048.078.072a3.243 3.243 0 0 1-.389.136c.039.024.039.048.078.064h-.505c0 .016.233.04.544.072l.582-.144c0 .048 0 .08-.039.12l.777-.152-.699-.136c.233 0 .389-.008.428-.016.038-.008.194-.016.427-.016v.072c.233 0 .388-.008.505-.032V.534l-.699-.072c0-.048-.039-.08-.078-.104-.039-.024-.078-.056-.078-.104.583.024 1.088.008 1.554-.032.466-.048.971-.056 1.554-.032.583.024 1.166.032 1.787.016a32.51 32.51 0 0 1 1.787.016c.234 0 .389.008.505.016.117.008.272.008.506-.016.815-.072 1.67-.072 2.564 0 .233-.048.388-.072.505-.072a9.441 9.441 0 0 0 1.787.048 13.192 13.192 0 0 1 1.787.016c.349.048.66.048.932.016s.583-.048.933-.048h3.108c.932.048 1.709.032 2.408-.032 0 .072.078.112.156.136 0-.024.116-.056.349-.104.35-.024.739-.024 1.127 0 .389.024.816.024 1.282 0 .233.024.583.032 1.049.032.117-.024.233-.032.35-.032l.349.072c.35-.048.738-.064 1.127-.048.388.008.777.016 1.127.016a69.675 69.675 0 0 1 2.758-.072v.104c.35 0 .699-.016 1.049-.048s.699-.048 1.049-.048c.466 0 .893.008 1.282.016.388.016.855-.008 1.282-.048.35.048.699.056 1.127.032.388-.024.777-.048 1.126-.072.466 0 .894-.008 1.282-.016.389-.008.777.008 1.127.048.466 0 .816-.008 1.049-.032.466.048.932.072 1.36.072.466 0 .932-.008 1.359-.032a25.13 25.13 0 0 1 1.904 0c.699.024 1.321.016 1.904-.032a8.376 8.376 0 0 0 1.554 0h6.293a40.3 40.3 0 0 1 2.409 0c.466.048.855.048 1.204.016.35-.032.738-.04 1.205-.016.349.024.699.032 1.126.016a8.55 8.55 0 0 1 1.127.048 14.36 14.36 0 0 1 1.709-.032c.583 0 1.438-.024 2.564-.072l.7.072v.072c.311.016.621.04.854.088.117-.048.234-.072.311-.088.117-.016.233-.04.35-.088v.072c.35.024.66.024.971 0a9.353 9.353 0 0 1 1.166 0c.427.024 1.087.008 1.981-.032.311.024.699.032 1.165.016.428-.008.894-.008 1.321.016.233.024.428.024.583.016.155-.016.35-.008.583.016.233.048.466.048.738.016.272-.032.505-.048.738-.048h2.797c.233 0 .389.016.505.048.117.032.272.064.505.088-.116.072-.31.12-.66.152-.311.032-.66.048-.971.048.116 0 .272.024.505.072h-.661c.117.024.389.032.816.032a2.28 2.28 0 0 1 .505-.016c.117.008.272.016.505.016.233.024.428.032.661.016.233-.008.427.008.66.048V.582h.661a3.103 3.103 0 0 0-.661-.072V.342a7.313 7.313 0 0 1-.505.088c-.116.008-.272.04-.505.088 0-.112.078-.192.155-.24l-.155-.032c.427-.048.777-.056.971-.032.233.048.428.048.661.016.233-.032.427-.064.66-.088.428.048.855.064 1.243.048.389-.016.816-.016 1.244-.016.233.024.427.024.66 0 .233-.024.427-.024.66 0 .428.024.894.024 1.321.016.428-.016.816.016 1.166.088.35-.072.699-.104 1.165-.104.661.024 1.282 0 1.826-.072.311.024.622.04.894.048s.583.016.893.016c.234.024.428.024.583 0 .156-.024.35-.032.583-.032.544.048 1.01.064 1.398.048.389-.016.855-.016 1.399-.016.35-.048.661-.056.971-.032.35.024.661.032.972.032.543.048.932.056 1.165.032.311-.048.777-.048 1.321 0V.062c0 .024.039.048.155.072h3.613c.233 0 .467.008.739.032.271.024.505.024.738 0a6.343 6.343 0 0 1 1.476.032 4.718 4.718 0 0 1 1.165 0c.234.024.389.024.506 0 .116-.024.271-.032.505-.032.31-.048.699-.048 1.087-.016.389.032.816.04 1.244.016.427 0 .854.008 1.243.016.388.008.738.008 1.088-.016.233-.024.427-.032.582-.016.156.008.35.016.583.016.311.024.661.016.971-.016.311-.032.7-.032 1.166.016.233 0 .505.008.816.016.31.008.621.008.815-.016a20.513 20.513 0 0 1 1.554-.016 19.8 19.8 0 0 0 1.399-.016c.544.024 1.166.032 1.826.016a21.75 21.75 0 0 1 1.826.048c.233-.024.427-.048.66-.072.233-.024.428-.032.661-.032.427.024.855.032 1.243.016a60.63 60.63 0 0 1 1.243-.016c.311 0 .661.008.971.016.311.008.7.032 1.166.048l.505.104c0-.088.389-.136 1.166-.136 0 .048.038.072.155.072 0-.048.078-.08.155-.104.233.048.467.064.739.048.271-.008.582-.008.893.016.233.024.427.016.66-.016.234-.032.428-.048.661-.048 1.088 0 1.865.024 2.292.072.311.048.777.048 1.321 0 .894.048 1.826.048 2.797 0 .427-.048.855-.04 1.243.016.389.056.816.064 1.244.016.893-.088 1.592-.136 2.136-.136h3.458c.35.024.66.024.971 0 .311-.024.661-.032.971-.032a23.11 23.11 0 0 0 1.826 0 14.993 14.993 0 0 1 1.826.032c.233.024.428.024.661 0 .233-.024.427-.032.66-.032h2.681v.072c.272.016.544.032.816.032.544-.024 1.01-.024 1.398 0 .389.024.816.048 1.243.072h2.448c.233 0 .427.008.583.016.155.016.349.008.582-.016.35-.024.661-.008.972.032.311.048.699.072 1.165.072.428 0 .816.032 1.166.104.233.048.427.072.66.072.233 0 .428.024.661.072.31.048.66.104.971.168.311.072.66.128.971.168.233.024.35.08.35.168.777.16 1.165.312 1.165.448.233.088.389.168.505.24.117.072.117.152 0 .24.117.024.195.032.233.032.078 0 .156.008.234.032l-.311.032c0 .088.116.232.311.409l-.272.056c.077.048.077.088.116.136ZM2.37 27.78c-.233-.024-.233-.016 0 .032.233 0 .233-.016 0-.032Zm.272-5.001c0 .032-.078.064-.117.096h.156c0-.032 0-.064-.04-.096Zm-.272-3.81.505-.207H2.37v.208Zm.078-.52c-.04.025-.078.057-.078.105.116.048.233.072.35.088.116.016.233.032.31.048-.116-.048-.116-.096-.077-.152.077-.056.077-.12.077-.192h-.505c0 .048 0 .088-.077.104Zm.077-1.416c0 .08.117.096.311.048.078-.008.078-.016.117-.024a.727.727 0 0 0 .233.024c.116-.024.155-.072.155-.136-.194 0-.35.024-.388.064-.04-.008-.04-.024-.078-.032-.233-.048-.35-.024-.35.056Zm.66-1.872c-.116 0-.194.016-.232.048-.04.032-.04.064.077.088.233.024.35.016.35-.032s-.078-.08-.194-.104Zm13.17-10.754.04.104c-.311.008-.7.008-1.088 0a6.066 6.066 0 0 0-1.05.064 38.627 38.627 0 0 0-1.398-.032c-.505-.008-.893.024-1.204.096.233.064.738.072 1.476.016a8.435 8.435 0 0 1 1.554-.016c.505.04 1.01.048 1.554.016.194-.048.311-.088.389-.128.039-.032.116-.072.194-.12h-.466Zm1.127 35.295c-.116.048-.038.048.156 0 0-.04-.078-.04-.156 0Zm11.539-22.797c.233.04.35.04.31-.008 0-.04-.116-.04-.31.008ZM39.433 4c-.078.048-.04.048.155 0 0-.048-.078-.048-.155 0Zm2.37.208c-.078.048-.04.048.155 0 0-.04-.078-.04-.156 0Zm2.719-.304c-.194.024-.583.016-1.166-.024.117.064.311.104.622.112.272.008.544.008.738.008-.039-.04-.078-.072-.194-.096Zm14.724 23.204a1.52 1.52 0 0 1 .427-.088h-.31c0-.024 0-.048.038-.072.04-.024.078-.048.078-.072a.536.536 0 0 1-.194-.064c0-.024-.117-.048-.35-.064l-.31.072.505-.008c.116.064.194.144.155.224-.039.024-.039.048-.039.072Zm.389-1.36c0-.048-.117-.064-.35-.064l-.155.072c-.234-.04-.311-.08-.195-.104-.039-.112 0-.192.078-.24h-.155a.85.85 0 0 0-.195.224c-.039.08.078.144.311.184a2.36 2.36 0 0 1-.466.04l.505.096c-.078.048-.155.096-.117.136.233.04.311.096.233.168-.077.072-.038.128.195.168-.04-.112.116-.208.427-.28l-.505.008-.078-.24c.195-.088.35-.144.467-.168ZM59.4 27.26a.858.858 0 0 1-.233-.104 1.53 1.53 0 0 1-.116.112c0 .049.078.088.194.137.117.04.233.087.35.136l-.505.008c.038.128.194.192.505.2-.156.008-.233.032-.156.072.078.048.04.088-.039.136.35.016.467 0 .389-.056-.078-.056-.117-.104-.117-.152.04 0 .117 0 .156-.009 0-.207-.156-.367-.428-.48Zm.04 1.24c.038.073-.117.129-.428.177l.66-.008c0 .008-.038.008-.038.016l.427-.008c.155-.04.155-.064.078-.088-.117-.024-.195-.056-.195-.104l-.505.016Zm1.825-.095a5.403 5.403 0 0 0-.583-.08c-.155-.008-.35-.024-.582-.04l.038.104.506-.008c.038.064.038.144 0 .224v.072c.155.008.31.008.466.024.078 0 .116.008.155.008.117-.096.156-.2 0-.304Zm5.206 11.162c-.116.048-.039.048.156 0 0-.04-.04-.04-.156 0Zm2.292.24c-.116.048-.039.048.156 0 .038-.04-.04-.04-.156 0Zm1.67-.304c.117.072.312.112.584.12.272.016.505.016.738.016 0-.048-.078-.08-.156-.104-.233.024-.621.008-1.165-.032ZM73.699.726c0 .088.156.104.505.032 0-.088-.155-.096-.505-.032Zm.505-.408v.104c.311.048.66.048.971 0l-.97-.104Zm.156.48c0 .048.038.064.155.048.117-.008.155-.032.155-.048 0-.048-.038-.064-.155-.048-.117.008-.155.024-.155.048Zm1.165-.48c.233.048.389.088.505.136.233-.048.31-.088.31-.136h-.815Zm-.194 3.2.039.105-1.166.016a9.676 9.676 0 0 1-.855-.096c-.233 0-.31.024-.31.072l.35.032c-.195.048-.35.064-.467.04-.544.008-.932 0-1.165-.016v.032c.35.016.699.032 1.088.04.388.008.699-.016.893-.064.117.024.194.056.194.104l.466-.112c.233.024.428.032.66.024.195-.048.467-.064.817-.048.35.016.621.008.816-.04-.583 0-1.01-.024-1.36-.088ZM78.127.487a6.082 6.082 0 0 1-.66.032c0 .024.038.04.077.048.04.016.078.032.078.048h.505V.486ZM83.45 3.8c0-.048-.078-.048-.156 0s-.039.048.156 0Zm-4.002-.264.039.064c-.117 0-.233 0-.35-.016a5.104 5.104 0 0 0-.35-.016c-.116.024-.194.04-.31.04a.733.733 0 0 0-.311.072l.35.064-.04-.104c.311-.024.661-.04 1.05-.032.116 0 .194.008.31.008a.964.964 0 0 1-.388-.08Zm4.196-.032a12.16 12.16 0 0 1-.7.024c0-.008 0-.024-.038-.032a34.51 34.51 0 0 0-2.293.096c-.194.024-.35.04-.505.048l.544.024c.233 0 .428-.016.66-.04.195-.024.428-.048.622-.08l.04.104c.62-.008.932-.04.97-.104.04.032.156.048.35.032.194-.016.427-.008.66.008.04-.072-.077-.096-.31-.08Zm2.875.08c.31-.008.621.024.854.096l-.039-.136c.233.024.467.032.66.024.234 0 .428.008.661.024l-.038-.104.35.064a9.11 9.11 0 0 1 .776-.112c-.233 0-.427.008-.583.024-.155.016-.35.024-.582.024-.117-.024-.195-.04-.195-.048s-.077-.024-.194-.048a8.09 8.09 0 0 0-.816.08c-.233-.04-.388-.048-.505-.024-.116.024-.272.04-.466.04l.117.096Zm2.72-.384a8.435 8.435 0 0 1-1.555.016c-.505-.04-1.01-.048-1.554-.016-.194.048-.31.088-.388.128-.04.032-.117.072-.195.12l.505-.008-.039-.104c.311-.008.7-.008 1.088 0 .389.008.739-.016 1.05-.064.427.016.932.032 1.398.032.505.008.893-.024 1.204-.104-.272-.048-.777-.056-1.515 0Zm1.592 36.303c-.117.024-.233.04-.31.048a2.368 2.368 0 0 0-.312.048l-.97-.104c-.118.024-.234.04-.312.048-.116.008-.233.032-.35.048.234.024.428.032.661.032.233 0 .427.024.66.072l.972-.104v-.088h-.04Zm2.603.136c0-.024-.117-.08-.31-.168a6.29 6.29 0 0 1-.661.104c.427.04.777.064.97.064Zm-.31-36.303c.038-.024.154-.056.388-.104-.66.056-1.01.08-1.127.08l-.039-.064a5.628 5.628 0 0 0-.621.112l.505-.008.038.136c.428-.048.739-.032 1.01.056.117-.024.195-.04.234-.04.038 0 .116-.016.233-.04a4.994 4.994 0 0 0-.505-.032c-.117 0-.272-.008-.505-.024.233-.024.35-.048.388-.072Zm7.225 36.063v.104c-.311 0-.7-.008-1.088-.016a7.962 7.962 0 0 0-1.087.048c-.428-.024-.894-.04-1.4-.048-.504-.008-.893.016-1.242.088.233.064.699.08 1.476.032a8.391 8.391 0 0 1 1.554 0c.505.048 1.01.056 1.554.032.233-.048.35-.088.427-.12.039-.032.117-.072.233-.12h-.427Zm4.779-.208c.544 0 .932-.032 1.165-.104-.116.024-.311.032-.66.032v-.072h-.505l.155.072c-.116.008-.155.032-.155.072Zm-3.963.208c0 .088.039.16.155.208.233-.024.35-.04.428-.048.039-.008.194-.032.427-.048.117-.048.039-.072-.233-.072a10.042 10.042 0 0 1-.777-.04Zm1.165-.584a.828.828 0 0 1-.233-.072 2.244 2.244 0 0 0-.427-.072v.176c.233 0 .427-.008.66-.032Zm-.233-2.009c0-.048 0-.096.039-.152.039-.056.039-.112.039-.152a.729.729 0 0 0-.233.024c-.039.016-.117.016-.233.024 0 .048 0 .08-.039.104-.039.024-.078.056-.039.104.272.136.389.248.428.336l.31-.04c0 .024.039.04.078.048.078.008.078.024.117.048.116 0 .194-.016.31-.04-.116-.024-.194-.04-.272-.064-.077-.024-.155-.04-.272-.064.156-.104.272-.16.234-.184l-.467.008ZM104.118.35V.214a9.27 9.27 0 0 0-.661.088c-.233.032-.427.064-.66.088.544 0 1.165.024 1.826.072 0-.024-.039-.04-.078-.048-.078-.008-.078-.032-.078-.048.233-.048.311-.08.311-.104-.117-.008-.311.024-.66.088Zm.272 38.72c-.156-.032-.234-.072-.234-.12 0-.072-.272-.128-.815-.168-.234.088-.35.152-.35.168.116.024.388.032.816.032 0 .024-.039.04-.078.048-.039.016-.078.032-.078.048.233.024.428.048.661.072.233.024.427.032.66.032-.233-.04-.427-.08-.582-.112ZM105.788.454c0-.048-.039-.072-.078-.088-.077-.008-.077-.032-.077-.048-.117 0-.195-.008-.233-.016-.078-.008-.156-.016-.233-.016.233.136.349.232.349.272.194-.024.428-.056.622-.104h-.35Zm.311.008c.116.064.311.112.66.136 0-.024.039-.04.078-.048s.078-.032.078-.048c-.078-.032-.389-.04-.816-.04Zm1.165 38.936c0 .024.039.032.156.032l.971-.104-.311-.072c0 .024-.116.032-.349.032l-.311-.032c0 .024-.039.048-.078.072-.039.024-.078.048-.078.072Zm.311-38.872c-.116.024-.155.056-.155.104l.66.072c0-.048.039-.072.078-.088.039-.008.078-.024.078-.048-.311-.008-.544-.016-.661-.04Zm1.166 24.677c-.428.04-.7.112-.738.216-.039.112.077.176.388.208.466-.04.816-.12 1.088-.248.272-.128.039-.184-.738-.176Zm6.099 14.587c-.116.032-.039.04.156.016 0-.04-.078-.048-.156-.016Zm3.108-37.167c0 .024.078.04.156.048-.039.008-.078.008-.117.024-.194.048-.117.072.272.064.388-.008.466-.032.233-.072-.078-.008-.117-.008-.155-.016.194-.016.31-.04.31-.088-.349 0-.582.016-.699.04Zm1.671 17.611c-.35-.032-.622-.024-.816.016-.039-.032 0-.064-.156-.096-.349-.184-.777-.168-1.243.056-.466.224-.233.304.661.232.233-.016.31-.048.427-.064-.078.136.155.232.777.288.389-.192.505-.336.35-.432ZM121.328.886c-.155-.008-.388-.032-.622-.048 0-.08-.038-.16-.077-.24-.078.008-.194.024-.272.032a5.15 5.15 0 0 1-.505.072V.87c.349.024.583.088.816.208.038-.008.077-.016.077-.024 0-.032.039-.056.078-.08h.194c.156-.032.272-.064.311-.088.039 0 .039 0 0 0Zm5.322 1.592c-.233 0-.271.024-.155.073.117.024.233.024.427.008.156-.016.234-.033.234-.057a3.86 3.86 0 0 0-.506-.023Zm8.12 36.68c-.233.024-.35.048-.427.072a.828.828 0 0 1-.233.072c.233.024.427.032.66.032v-.176Zm31.896-2.089a1.455 1.455 0 0 0-.428-.008c-.155.016-.233.032-.233.056.117.024.272.032.505.032.234-.008.272-.032.156-.08Zm8.547-.072c0-.024-.078-.04-.156-.048.039-.008.078-.008.117-.024.194-.048.116-.072-.272-.064-.389.008-.466.032-.233.072.116.016.155.016.194.024-.194.016-.311.04-.311.088.35-.008.544-.024.661-.048Zm-.078-17.82c-.233.017-.311.049-.427.065.077-.136-.156-.232-.777-.288-.389.192-.505.336-.311.424.35.032.622.024.816-.016.039.032 0 .064.155.096.35.184.777.168 1.243-.056.389-.216.195-.296-.699-.224Zm9.635-5.184c-.466.04-.816.12-1.088.248-.272.128-.039.184.738.176.428-.04.699-.112.738-.216.039-.112-.077-.176-.388-.208Zm2.37 25.269c0 .048-.039.072-.078.088-.039.008-.078.024-.078.048.311 0 .544.008.661.032.116-.024.155-.056.155-.104l-.66-.064Zm2.641.136a5.587 5.587 0 0 0-.621.104h-.039c-.117-.064-.311-.112-.66-.136 0 .024-.039.04-.078.048s-.078.032-.078.048c.078.016.389.024.816.032h.35c0 .048.039.072.077.088.078.008.078.032.078.048.117 0 .194.008.233.016.078.008.156.016.233.016-.194-.12-.311-.216-.311-.264Zm1.399-36.855-.311.04c0-.024-.039-.04-.077-.048-.039-.009-.078-.025-.078-.049-.117 0-.194.016-.311.04.117.025.194.04.272.065.078.024.155.04.272.064-.194.096-.272.152-.272.176l.505-.008c0 .048 0 .096-.039.152-.039.056-.039.112-.039.152a.72.72 0 0 0 .233-.024c.039-.016.117-.016.234-.024 0-.048 0-.08.038-.104.039-.024.078-.056.039-.104-.311-.12-.427-.232-.466-.328Zm-.583 36.959c0 .024.039.04.078.048.078.008.078.032.078.048-.233.048-.35.08-.35.104.117 0 .311-.032.661-.104v.144c.233-.024.427-.048.66-.088.233-.032.427-.064.66-.088a21.072 21.072 0 0 1-1.787-.064Zm10.373-3.225-.039-.136c-.427.048-.738.032-1.01-.056-.116.024-.194.04-.233.04-.039 0-.116.016-.233.04.233.024.389.032.505.032.117 0 .272.008.505.024-.194.024-.349.048-.388.072-.039.024-.156.056-.389.104.661-.056 1.01-.08 1.127-.08l.039.064c.194-.024.427-.064.621-.112l-.505.008ZM204.7.31c.116-.032.039-.04-.156-.016 0 .048.039.056.156.016Zm1.942 35.727a2.797 2.797 0 0 1-.854-.096l.038.136c-.233-.024-.466-.032-.66-.024-.233 0-.427-.008-.66-.024l.038.104-.349-.064c-.117.024-.35.064-.777.112.233 0 .427-.008.583-.024.155-.016.349-.024.582-.024.117.024.194.04.194.048s.078.024.195.048c.116 0 .388-.024.816-.08.233.04.388.048.505.024.116-.024.272-.04.466-.04l-.117-.096Zm.544.144.039.104c-.311 0-.699.008-1.088 0a6.072 6.072 0 0 0-1.049.064 38.582 38.582 0 0 0-1.398-.032c-.505-.008-.894.024-1.205.104.233.064.739.072 1.477.016a8.436 8.436 0 0 1 1.554-.016c.505.04 1.01.048 1.554.016.194-.048.31-.088.388-.128.039-.032.117-.072.194-.12l-.466-.008Zm13.831 3.465v-.104a3.298 3.298 0 0 0-.972 0l.972.104Zm.077-.384v-.072c-.038 0-.038.008-.038.008-.039.032 0 .048.038.064Zm-.233-.096c0-.048-.039-.064-.155-.048-.117.008-.155.032-.155.048 0 .048.038.064.155.048.116-.016.155-.032.155-.048Zm-1.126.48a2.924 2.924 0 0 1-.505-.136c-.233.048-.311.088-.311.136h.816Zm-2.642-.176c.233-.024.427-.032.66-.032 0-.024-.039-.04-.077-.048-.039-.016-.078-.032-.078-.048h-.505v.128Zm-3.341-3.385-.039-.072c.117 0 .233 0 .35.016.116.008.233.016.349.016.117-.024.195-.04.311-.04a.735.735 0 0 0 .311-.072l-.35-.064.039.104c-.35.024-.699.04-1.088.032-.116 0-.194-.008-.311-.008.156.008.311.04.428.088Zm-2.098 3.52c0-.047-.078-.047-.155 0-.117.049-.039.049.155 0Zm-1.943-3.776c0 .048.078.048.156 0 .116-.048.078-.048-.156 0ZM212.12.67l-.971.104.311.072c0-.024.116-.032.349-.032l.311.032c0-.024.039-.048.078-.072.078-.024.078-.048.078-.072 0-.016-.078-.032-.156-.032Zm.427 35.295c-.233 0-.427.016-.66.04-.194.024-.427.048-.622.08l-.038-.104c-.622.008-.933.04-.972.104-.039-.032-.155-.048-.349-.032a4.616 4.616 0 0 1-.661-.008c-.077.072 0 .096.272.08s.505-.024.699-.024c0 .008 0 .024.039.032a34.46 34.46 0 0 0 2.292-.096c.195-.024.35-.04.506-.048-.156-.008-.311-.016-.506-.024ZM214.412.91c-.544 0-.932.032-1.165.104.116-.024.311-.032.66-.032v.072h.505l-.155-.072c.078 0 .155-.024.155-.072Zm1.399.152c.039-.016.078-.032.078-.048-.234-.024-.428-.048-.661-.072a6.074 6.074 0 0 0-.66-.032l.582.12c.156.032.234.072.234.12 0 .072.271.128.815.168.233-.088.35-.152.35-.168-.117-.024-.388-.032-.816-.032 0-.024 0-.04.078-.056Zm.699 34.96a7.274 7.274 0 0 1 1.36.087l-.039-.104 1.166-.016c.466.04.738.072.854.096.233 0 .311-.024.311-.072l-.35-.032c.195-.048.35-.064.467-.04.543-.008.932 0 1.165.016v-.032c-.35-.016-.699-.032-1.088-.04-.388-.008-.699.016-.893.064-.117-.024-.195-.056-.195-.104l-.466.112c-.233-.024-.427-.032-.66-.024-.194.048-.466.064-.816.04a3.25 3.25 0 0 0-.816.048Zm.933-34.664c.077.024.194.048.427.072v-.168c-.233 0-.427.008-.661.032.117.016.195.04.234.064Zm.738-.856c-.233.024-.35.04-.428.048a3.938 3.938 0 0 1-.427.048c-.117.048-.039.072.233.072s.505.008.738.032c.039-.088 0-.152-.116-.2Zm4.273 0a8.39 8.39 0 0 1-1.554 0 11.071 11.071 0 0 0-1.554-.032 2.31 2.31 0 0 0-.427.12 1.042 1.042 0 0 1-.233.12h.505V.606c.349 0 .699.008 1.088.016.388.008.738-.008 1.087-.048.428.024.894.04 1.399.048s.894-.016 1.243-.088c-.272-.072-.777-.08-1.554-.032Zm3.613-.04c0 .024.117.08.35.168a6.28 6.28 0 0 1 .66-.104c-.427-.04-.777-.064-1.01-.064Zm4.274 0c-.233 0-.428-.024-.661-.072l-.971.104v.104c.117-.024.233-.04.35-.048.116-.008.233-.032.31-.048l.972.104c.116-.024.233-.04.311-.048.116-.008.233-.032.349-.048a4.2 4.2 0 0 0-.66-.048Zm3.69 11.618c-.038-.128-.194-.192-.505-.2.156-.008.233-.032.156-.072-.078-.048-.039-.088.039-.136-.35-.016-.467 0-.389.056.078.056.117.104.117.152-.039 0-.117 0-.156.008.039.208.195.369.466.473a.86.86 0 0 1 .234.103c.038-.04.077-.08.116-.112 0-.047-.078-.088-.194-.136-.117-.04-.233-.088-.35-.136h.466Zm-1.437-1.136c-.155 0-.311-.008-.466-.024-.078 0-.117-.008-.156-.008-.155.096-.155.2-.038.304.233.04.427.072.582.08.156.008.35.024.583.04l-.039-.104-.505.008c-.039-.064-.039-.144 0-.224.039-.024.039-.048.039-.072Zm.932.008c0-.008.039-.008.039-.016l-.427.008c-.156.04-.156.064-.078.088.117.024.194.056.194.104l.505-.008c-.038-.072.117-.128.428-.176h-.661Zm.544 1.849c-.116-.065-.194-.145-.155-.225 0-.024.039-.048.039-.064a1.53 1.53 0 0 1-.428.088l.311-.008c0 .024 0 .048-.039.072-.039.024-.077.049-.077.072.116.025.155.04.194.065 0 .024.116.048.35.064l.31-.072-.505.008Zm.078.864c.078-.048.155-.096.117-.136-.234-.04-.311-.096-.234-.168.078-.072.039-.128-.194-.168.039.112-.116.208-.427.28l.505-.008.078.24c-.195.096-.35.152-.428.176 0 .048.117.064.35.064l.155-.072c.233.04.311.08.195.104.038.112 0 .192-.078.24h.155c.078-.072.156-.144.194-.224.039-.08-.077-.144-.31-.184.116-.024.272-.04.466-.04l-.544-.104Zm10.179 25.933a2.65 2.65 0 0 0-.505.032c0 .024.077.04.233.048.155.008.31.008.427-.016.117-.04.078-.064-.155-.064ZM248.522.486c-.272-.016-.505-.016-.738-.016 0 .048.078.08.156.104.233-.024.621-.016 1.165.032-.116-.072-.311-.112-.583-.12Zm.7 35.143c-.272-.008-.544-.008-.738-.008 0 .048.077.08.194.104.194-.024.583-.016 1.165.024-.155-.08-.349-.112-.621-.12ZM250.581.294c0 .048.078.048.156 0 .116-.048.078-.048-.156 0Zm.622 35.12c0 .047.078.047.155 0 .117-.049.078-.049-.155 0Zm1.671-34.88c0 .048.077.048.155 0 .155-.048.078-.048-.155 0Zm.155 39.168c-.039-.016-.078-.016-.117-.024.078-.008.117-.024.117-.048-.117-.024-.311-.032-.66-.032 0 .048.116.072.31.08-.038.008-.077.008-.155.016-.233.048-.117.072.233.072.427 0 .505-.016.272-.064Zm.544-4.073c0 .048.078.048.155 0 .117-.056.078-.056-.155 0Zm6.449 4.057c-.272-.016-.583-.016-.894-.016v.096c.234 0 .389.008.505.016.117.008.272.016.506.016.233-.024.349-.048.427-.072l.233-.072a4.85 4.85 0 0 1-.777.032Zm1.088.016v.104h.971l-.971-.104Zm2.758-16.98c0 .049.117.04.311-.008-.233-.04-.35-.04-.311.009ZM279.486.198a8.39 8.39 0 0 1-1.554 0 11.071 11.071 0 0 0-1.554-.032 2.33 2.33 0 0 0-.428.12.996.996 0 0 1-.233.12h.505V.302c.311 0 .7.008 1.088.016.389.008.738-.008 1.088-.048.427.024.893.04 1.399.048.194 0 .31 0 .466-.008V.182c-.233 0-.466 0-.777.016Zm.544 34.767a8.436 8.436 0 0 1-1.554.016 11.13 11.13 0 0 0-1.554-.016 1.852 1.852 0 0 0-.389.128c-.039.032-.116.072-.194.12l.505-.008-.039-.104c.311-.008.699-.008 1.088 0 .388.008.738-.016 1.049-.064.427.016.932.032 1.398.032.506.008.894-.024 1.205-.104-.233-.048-.738-.056-1.515 0Zm11.499-7.634c-.116.024-.194.04-.311.056a4.203 4.203 0 0 0-.31.056c-.467-.04-.739-.056-.855-.056l.039.104c-.233 0-.466 0-.738-.008-.272-.008-.505-.008-.739-.008 0 .024.039.04.078.048.078.009.078.024.117.049.233 0 .388 0 .505.008.116.008.272.016.505.008.66-.056 1.204-.08 1.631-.088l-.194-.064c.117 0 .195-.009.233-.017.039-.015.117-.015.233-.024 0-.023-.077-.04-.194-.064Zm.117 4.777c-.078-.008-.078-.024-.117-.048-.233 0-.388 0-.505-.008-.116-.008-.272-.016-.505-.008-.66.056-1.204.08-1.632.088l.195.064c-.117 0-.195.008-.233.016-.039.016-.117.016-.234.024 0 .025.078.049.195.065.116-.025.194-.04.311-.057.116-.016.194-.032.31-.056.467.04.738.056.855.056l-.039-.104c.233 0 .466 0 .738.008.272.008.505.008.738.008 0-.016-.038-.032-.077-.048Zm5.011.553c-.116.008-.194.015-.31.015-.039 0-.039.008-.078.008a1.4 1.4 0 0 0-.35.089h.816c.039-.033 0-.073-.078-.113Zm4.429-12.315c.078-.056.078-.112.078-.152a3.55 3.55 0 0 0-.505.032c.116.048.078.128-.155.24.349-.024.505-.064.582-.12Zm-.233.944c.233.024.233.008 0-.032-.233 0-.233.008 0 .032Zm-.311 13.219c0-.008.039-.016.039-.024-.077 0-.194.008-.349.024h.31Zm-.349 1.816c.233.024.233.008 0-.032-.195 0-.195.008 0 .032Zm-.777-3.28h.505c0 .072-.039.144-.078.224-.039.08.039.152.233.224a.712.712 0 0 0-.233.288c-.039.104.078.192.427.256.311-.048.389-.152.156-.312-.233-.112-.233-.224 0-.328.233-.104.272-.208.155-.328a5.694 5.694 0 0 0-.583-.088 11.801 11.801 0 0 1-.582-.048v.112Zm0-.168c.427 0 .777-.008.971-.032-.117-.048-.194-.072-.233-.088-.039-.008-.039-.017-.078-.024-.155 0-.311 0-.505.008a.458.458 0 0 1-.155.136Zm1.204-18.692s.039 0 .039.008c0-.008-.039-.008-.039-.008Zm.078.048a1.275 1.275 0 0 1-.233-.072c-.117-.008-.233-.024-.389-.032h-.078v.096h.506c0 .048-.039.096-.039.144.233-.016.427-.032.582-.032a2.904 2.904 0 0 0-.349-.104Zm.311.352c.077-.032.077-.064.116-.088-.078.008-.155.016-.233.016-.194-.016-.311-.032-.466-.048-.039.08.039.144.233.216a.705.705 0 0 0-.233.288c-.039.104.078.192.427.256.311-.048.389-.152.156-.312-.234-.112-.234-.224 0-.328Zm-.661 1.152c.233.048.389.088.505.136.233-.088.311-.16.311-.208-.117 0-.389.024-.816.072Zm.661.48h-.505a.831.831 0 0 1 .233.072c.038.024.155.048.233.072l-.505.208a.832.832 0 0 1 .233.072c.039.024.155.048.233.072.116-.048.155-.088.155-.136 0-.048.117-.088.35-.136l-.427-.224Zm.971 4.561c-.233 0-.233.008 0 .032s.233.008 0-.032Z"/></svg>